<?xml version="1.0" standalone="no"?>
<!DOCTYPE svg PUBLIC "-//W3C//DTD SVG 20010904//EN"
 "http://www.w3.org/TR/2001/REC-SVG-20010904/DTD/svg10.dtd">
<svg version="1.0" xmlns="http://www.w3.org/2000/svg"
 width="500.000000pt" height="500.000000pt" viewBox="0 0 500.000000 500.000000"
 preserveAspectRatio="xMidYMid meet">
<metadata>
Created by potrace 1.14, written by Peter Selinger 2001-2017
</metadata>
<g transform="translate(0.000000,500.000000) scale(0.100000,-0.100000)"
fill="#000000" stroke="none">
<path d="M2170 4975 c-434 -62 -824 -223 -1180 -488 -120 -90 -383 -353 -477
-477 -247 -328 -409 -709 -480 -1129 -26 -152 -26 -610 0 -762 114 -679 478
-1265 1032 -1661 284 -203 705 -371 1056 -423 174 -25 529 -31 679 -11 357 48
680 158 976 333 451 268 828 702 1022 1177 137 334 195 621 195 966 -1 293
-38 518 -133 803 -116 347 -301 652 -560 920 -147 153 -262 249 -430 360 -292
192 -594 312 -955 378 -144 27 -597 36 -745 14z m660 -180 c262 -41 556 -135
735 -236 57 -32 58 -35 70 -134 4 -27 8 -62 11 -76 l5 -26 -243 -6 c-134 -3
-252 -7 -263 -10 -11 -3 -49 -8 -85 -12 -36 -4 -96 -13 -133 -20 l-68 -13 -52
35 c-29 20 -97 57 -152 84 -155 74 -291 107 -479 114 -59 2 -102 9 -106 15 -4
7 -15 57 -24 113 -9 56 -19 110 -21 120 -2 9 4 21 13 26 14 7 155 29 292 45
74 9 400 -4 500 -19z m-856 -157 c9 -62 19 -125 22 -139 4 -22 0 -28 -28 -40
-141 -58 -379 -275 -488 -446 -53 -83 -70 -102 -90 -102 -46 -2 -229 -50 -319
-85 -107 -41 -230 -110 -329 -183 -83 -61 -67 -72 -121 80 l-30 86 35 53 c54
80 162 203 266 304 211 204 433 353 693 464 111 48 322 119 356 120 13 0 20
-22 33 -112z m1812 -505 c59 -65 194 -205 299 -311 l190 -193 3 -211 c3 -191
-15 -474 -34 -544 -5 -20 -14 -21 -152 -27 -161 -8 -233 -16 -394 -48 l-108
-22 -47 44 c-71 64 -523 488 -640 600 l-103 99 25 102 c33 134 54 304 57 453
l3 120 55 8 c247 37 340 45 531 46 l206 1 109 -117z m-2332 -390 c69 -143 166
-282 276 -397 l97 -101 -34 -45 c-162 -218 -273 -549 -273 -821 0 -43 -3 -79
-6 -79 -4 0 -63 -11 -131 -25 -153 -31 -327 -88 -465 -153 l-104 -49 -39 46
c-107 122 -231 290 -319 434 l-48 77 17 93 c35 194 114 468 194 679 59 153
399 359 696 422 39 8 75 15 81 15 6 1 32 -43 58 -96z m3010 -158 c49 -8 90
-16 92 -18 10 -10 95 -202 119 -267 47 -132 95 -320 116 -464 28 -183 31 -500
6 -652 -23 -139 -37 -203 -47 -209 -11 -7 -136 20 -182 40 -36 15 -38 17 -38
63 -1 232 -82 523 -193 700 -26 40 -27 46 -18 105 31 194 45 579 25 682 -7 42
-9 41 120 20z m-1242 -567 l307 -288 -31 -68 c-82 -180 -160 -424 -203 -639
-14 -70 -30 -132 -36 -139 -19 -23 -154 -108 -253 -160 -176 -91 -390 -153
-583 -169 l-81 -7 -234 235 c-128 128 -282 276 -343 327 -60 51 -125 106 -144
122 l-34 29 6 128 c13 275 89 512 233 726 94 140 71 126 339 204 132 38 312
92 400 119 l160 49 95 -90 c52 -49 233 -220 402 -379z m-2787 -575 c95 -145
176 -251 277 -366 l78 -88 0 -79 c0 -228 109 -574 241 -766 l31 -45 -49 -52
c-27 -29 -71 -82 -98 -119 l-49 -68 -63 69 c-339 372 -549 833 -602 1323 -6
54 -11 120 -11 148 l0 50 83 54 c45 30 83 55 84 55 1 1 36 -52 78 -116z m4139
-508 c41 -14 87 -25 103 -25 61 0 62 -8 14 -150 -24 -72 -78 -199 -120 -283
-128 -255 -264 -441 -470 -640 -122 -117 -310 -267 -336 -267 -18 0 -127 40
-139 50 -4 5 4 25 20 45 131 172 255 445 304 668 7 31 17 57 21 57 17 0 191
145 265 221 86 89 185 218 231 299 15 28 29 50 30 50 2 0 36 -11 77 -25z
m-1251 -182 c44 -60 176 -187 242 -234 73 -52 159 -99 239 -130 68 -27 71 -29
68 -58 -4 -50 -70 -239 -117 -336 -52 -108 -140 -249 -197 -317 -31 -38 -61
-59 -117 -85 -194 -90 -438 -164 -648 -198 l-103 -17 -92 45 c-163 79 -295
176 -431 314 l-68 69 33 60 c84 149 153 333 193 509 l22 100 34 2 c299 21 572
111 809 267 47 31 88 56 92 56 3 0 22 -21 41 -47z m-2073 -781 c218 -111 453
-177 670 -189 l105 -6 74 -79 c115 -124 294 -259 431 -328 25 -12 46 -24 48
-25 2 -1 -14 -37 -35 -79 l-37 -76 -88 0 c-101 0 -281 22 -418 51 -242 52
-575 193 -781 332 -99 66 -278 211 -285 232 -7 17 157 235 176 235 3 0 66 -31
140 -68z"/>
</g>
</svg>
