<?xml version="1.0" standalone="no"?>
<!DOCTYPE svg PUBLIC "-//W3C//DTD SVG 20010904//EN"
 "http://www.w3.org/TR/2001/REC-SVG-20010904/DTD/svg10.dtd">
<svg version="1.0" xmlns="http://www.w3.org/2000/svg"
 width="180.000000pt" height="180.000000pt" viewBox="0 0 180.000000 180.000000"
 preserveAspectRatio="xMidYMid meet">
<metadata>
Created by potrace 1.14, written by Peter Selinger 2001-2017
</metadata>
<g transform="translate(0.000000,180.000000) scale(0.100000,-0.100000)"
fill="#000000" stroke="none">
<path d="M728 1655 c-233 -57 -441 -231 -537 -450 -62 -140 -78 -338 -41 -493
21 -86 68 -191 119 -266 38 -55 133 -150 189 -188 68 -47 199 -104 279 -122
92 -20 244 -20 336 0 81 18 212 76 282 124 102 70 211 205 264 325 80 182 80
438 0 620 -76 173 -231 328 -403 404 -135 59 -350 79 -488 46z m357 -70 c33
-9 84 -27 113 -40 46 -21 52 -28 52 -53 l0 -30 -117 -4 c-114 -3 -120 -3 -176
25 -39 20 -80 31 -123 35 -63 5 -64 5 -64 33 0 16 0 32 0 37 -2 25 217 23 315
-3z m-345 -47 c0 -19 -9 -32 -34 -48 -36 -21 -136 -125 -136 -140 0 -4 -17
-11 -37 -15 -45 -8 -140 -50 -165 -72 -20 -18 -32 -11 -43 25 -6 20 6 36 82
110 90 89 164 136 266 171 57 20 67 15 67 -31z m618 -200 l92 -93 0 -71 c0
-39 -3 -91 -6 -116 l-6 -45 -77 -6 c-42 -4 -85 -9 -97 -13 -30 -8 -250 200
-248 236 1 14 6 61 10 105 l9 80 45 6 c25 3 77 7 116 7 l71 2 91 -92z m-773
-80 c11 -22 38 -62 61 -87 39 -43 41 -48 27 -66 -32 -42 -63 -122 -74 -192
-11 -67 -14 -74 -38 -79 -45 -10 -125 -36 -153 -50 -27 -14 -28 -13 -55 27
-15 23 -37 80 -49 127 -21 84 -21 87 -4 146 29 100 37 113 85 146 46 31 135
69 165 70 8 0 24 -19 35 -42z m948 -41 c47 -34 96 -264 83 -387 -9 -82 -15
-93 -49 -84 -24 5 -27 11 -27 48 0 22 -12 73 -27 111 -22 61 -26 87 -27 198
-2 111 0 127 14 127 9 0 24 -6 33 -13z m-439 -139 l119 -113 -31 -85 c-16 -47
-33 -104 -37 -128 -6 -35 -14 -48 -45 -68 -52 -35 -130 -63 -192 -69 l-53 -6
-114 112 -115 111 11 72 c10 74 52 173 86 203 15 15 204 78 242 82 6 1 64 -50
129 -111z m464 -369 l31 -10 -15 -42 c-8 -23 -27 -55 -42 -70 -28 -30 -168
-127 -182 -127 -4 0 -3 17 4 38 7 24 36 62 82 108 40 39 75 81 79 93 8 25 4
24 43 10z m-284 -149 c51 -28 53 -33 30 -90 -14 -35 -22 -42 -68 -55 -117 -36
-269 -41 -381 -14 l-41 10 26 78 25 78 69 13 c39 7 100 28 140 49 l71 37 41
-41 c23 -22 62 -52 88 -65z"/>
</g>
</svg>
