<svg width="19" height="20" viewBox="0 0 19 20" fill="none" xmlns="http://www.w3.org/2000/svg">
<g id="Group" clip-path="url(#clip0_177_107)">
<path id="Vector" d="M9.69336 8.18182V12.0545H14.9106C14.6815 13.3 13.994 14.3546 12.9629 15.0636L16.1091 17.5818C17.9422 15.8364 18.9997 13.2728 18.9997 10.2274C18.9997 9.51829 18.9381 8.83641 18.8235 8.18193L9.69336 8.18182Z" fill="#4285F4"/>
<path id="Vector_2" d="M4.26135 11.9034L3.55176 12.4637L1.04004 14.4818C2.63517 17.7454 5.90452 20 9.69404 20C12.3114 20 14.5058 19.1091 16.1098 17.5819L12.9636 15.0637C12.0999 15.6637 10.9983 16.0273 9.69404 16.0273C7.17356 16.0273 5.03209 14.2728 4.26531 11.9092L4.26135 11.9034Z" fill="#34A853"/>
<path id="Vector_3" d="M1.03985 5.51817C0.378916 6.86357 0 8.38176 0 9.99991C0 11.6181 0.378916 13.1363 1.03985 14.4817C1.03985 14.4907 4.26543 11.8998 4.26543 11.8998C4.07155 11.2999 3.95694 10.6635 3.95694 9.99981C3.95694 9.33609 4.07155 8.69977 4.26543 8.09977L1.03985 5.51817Z" fill="#FBBC05"/>
<path id="Vector_4" d="M9.69424 3.9818C11.1219 3.9818 12.391 4.49088 13.4045 5.4727L16.1805 2.60911C14.4972 0.990967 12.3117 0 9.69424 0C5.90472 0 2.63517 2.24544 1.04004 5.51817L4.26552 8.09998C5.0322 5.73633 7.17376 3.9818 9.69424 3.9818Z" fill="#EA4335"/>
</g>
<defs>
<clipPath id="clip0_177_107">
<rect width="19" height="20" fill="white"/>
</clipPath>
</defs>
</svg>
